<?xml version="1.0" encoding="utf-8"?><svg width="23" height="24" xmlns="http://www.w3.org/2000/svg" viewBox="0 0 23 24"><g clip-path="url(#lclip0)"><path d="M18 5c0 2.761-1.739 5-4.5 5S9 7.761 9 5 10.739.5 13.5.5 18 2.239 18 5zM10.614 16.278a.483.483 0 000-.663.438.438 0 00-.637 0 .484.484 0 000 .663c.176.183.461.183.637 0z"/><path d="M8.482 5.155c0 2.842 2.22 5.155 4.95 5.155s4.95-2.313 4.95-5.155c0-2.843-2.22-5.155-4.95-5.155s-4.95 2.312-4.95 5.155zm9 0c0 2.325-1.817 4.217-4.05 4.217-2.233 0-4.05-1.892-4.05-4.217 0-2.326 1.817-4.218 4.05-4.218 2.233 0 4.05 1.892 4.05 4.218zM5.206 23.861a.437.437 0 00.635.004l2.182-2.238c.37-.386.483-.958.32-1.454l.47-.472c.252-.254.585-.394.937-.394h5.982a3.947 3.947 0 002.824-1.195c.031-.032-.237.298 4.081-5.077.64-.79.545-1.974-.214-2.642a1.755 1.755 0 00-2.525.209l-2.655 2.842a1.782 1.782 0 00-1.399-.698h-5.018a5.607 5.607 0 00-2.253-.468c-2.167 0-4.059 1.042-5.074 2.996a1.31 1.31 0 00-1.204.389l-2.14 2.235a.483.483 0 00-.001.662l5.052 5.301zm3.367-10.646c.689 0 1.355.145 1.98.43.058.025.12.039.181.039h5.11c.488 0 .9.414.9.937 0 .517-.404.937-.9.937h-3.671a.46.46 0 00-.45.469.46.46 0 00.45.468h3.671c.993 0 1.8-.84 1.8-1.874 0-.082-.006-.164-.016-.245 2.569-2.75 2.93-3.136 2.946-3.155a.878.878 0 011.269-.112c.379.334.427.926.105 1.323l-4.035 5.024c-.59.59-1.364.914-2.181.914H9.75a2.19 2.19 0 00-1.562.657l-.383.384-3.525-3.67c.824-1.61 2.37-2.526 4.293-2.526zm-5.64 3.11a.435.435 0 01.556-.066c.078.05-.145-.163 3.898 4.042.18.188.17.486.002.66L5.53 22.87l-4.421-4.64 1.824-1.905z"/><path d="M12.892 2.343v.55c-.524.193-.9.714-.9 1.325 0 .775.605 1.406 1.35 1.406.248 0 .45.21.45.468a.46.46 0 01-.45.469c-.193 0-.4-.126-.585-.355a.438.438 0 00-.634-.057.482.482 0 00-.054.66c.24.298.523.506.823.61v.548a.46.46 0 00.45.468.46.46 0 00.45-.468v-.55c.523-.193.9-.714.9-1.325 0-.775-.606-1.406-1.35-1.406a.46.46 0 01-.45-.468.46.46 0 01.45-.469c.16 0 .327.085.486.245.179.18.464.175.637-.01a.483.483 0 00-.01-.663 1.729 1.729 0 00-.664-.432v-.546a.46.46 0 00-.45-.468.46.46 0 00-.45.468z"/></g><defs><clipPath id="lclip0"><path d="M0 0h23v24H0z"/></clipPath></defs></svg>