<?xml version="1.0" encoding="utf-8"?><svg width="24" height="25" xmlns="http://www.w3.org/2000/svg" viewBox="0 0 24 25"><g clip-path="url(#fclip0)"><path d="M1.63 20.526l12.08.448v2.237H1.63v-2.685z"/><path d="M12.853 24.105H2.19a1.456 1.456 0 01-1.454-1.454v-.969c0-.802.653-1.454 1.454-1.454h10.663c.801 0 1.454.652 1.454 1.454v.97c0 .8-.653 1.453-1.454 1.453zM2.19 21.197a.485.485 0 00-.484.485v.97c0 .266.217.484.484.484h10.663a.485.485 0 00.484-.485v-.969a.485.485 0 00-.484-.485H2.19zM11.1 13.082a.842.842 0 01-.62-.244L7.078 9.435c-.595-.595.059-1.624.273-1.961.402-.632 1.029-1.386 1.765-2.123.738-.739 1.493-1.367 2.125-1.77.34-.215 1.37-.87 1.965-.274l3.402 3.402c.596.596-.06 1.627-.275 1.966-.403.633-1.032 1.388-1.77 2.125-.737.737-1.491 1.363-2.122 1.764-.236.152-.812.518-1.34.518zm1.421-9.09c-.17.007-1.232.558-2.716 2.04-1.483 1.483-2.035 2.548-2 2.788l3.361 3.332c.171-.006 1.234-.558 2.718-2.04 1.427-1.429 1.991-2.467 2-2.758l-3.363-3.362z"/><path d="M9.463 15.303c-.37 0-.742-.142-1.024-.424l-3.402-3.402a1.434 1.434 0 01-.424-1.023c0-.386.15-.75.425-1.023l.68-.68a1.449 1.449 0 012.046 0l3.403 3.402a1.449 1.449 0 010 2.046l-.68.68a1.446 1.446 0 01-1.024.424zM6.74 9.296a.48.48 0 00-.338.14l-.68.68a.473.473 0 000 .677l3.402 3.402a.48.48 0 00.676 0l.68-.68a.479.479 0 000-.676L7.08 9.437a.48.48 0 00-.338-.141zM16.948 7.817c-.37 0-.741-.142-1.023-.424l-3.402-3.402a1.447 1.447 0 010-2.045l.68-.68a1.448 1.448 0 012.046 0l3.403 3.402a1.449 1.449 0 010 2.046l-.68.68a1.441 1.441 0 01-1.024.423zm-2.721-6.005a.48.48 0 00-.339.14l-.68.68a.477.477 0 000 .675l3.402 3.402a.48.48 0 00.676 0l.68-.68a.479.479 0 000-.675l-3.402-3.402a.476.476 0 00-.337-.14zm4.081 4.56h.01-.01zM22.155 20.23c-.585 0-1.214-.334-1.883-1.002-.668-.67-4.6-4.997-7.041-7.875a.484.484 0 11.74-.626c2.544 3 6.41 7.238 6.987 7.815 1.091 1.094 1.517.668 1.77.416.117-.116.277-.275.3-.503.032-.33-.215-.769-.714-1.269-.573-.573-4.803-4.432-7.816-6.99a.484.484 0 11.627-.739c2.89 2.452 7.213 6.38 7.876 7.044.722.722 1.057 1.412.993 2.05-.058.571-.41.923-.578 1.091-.394.393-.814.589-1.261.589z"/></g><defs><clipPath id="fclip0"><path transform="translate(.736 .842)" d="M0 0h23.263v23.263H0z"/></clipPath></defs></svg>