<?xml version="1.0" encoding="utf-8"?><svg width="22" height="22" xmlns="http://www.w3.org/2000/svg" viewBox="0 0 22 22"><g clip-path="url(#jclip0)"><path d="M17.5 11L15 12V8L5.5 3.5 5 3l2.5-1L17 6.5l.5.5v4z"/><path d="M21.13 4.854L11.14.032a.322.322 0 00-.28 0L.873 4.854a.322.322 0 00-.183.29v11.712c0 .123.071.236.183.29l9.989 4.822a.323.323 0 00.28 0l9.989-4.822a.322.322 0 00.182-.29V5.143a.322.322 0 00-.182-.29zM11 .68l9.248 4.464-2.68 1.295a.32.32 0 00-.055-.035L8.328 1.97 11.001.68zM7.6 2.335l9.234 4.457-1.89.914-9.231-4.457L7.6 2.335zm9.45 5.069v3.375l-1.766.853V8.257l1.766-.853zm3.617 9.25l-9.344 4.51V10.17l2.229-1.076a.322.322 0 00-.28-.58L11 9.608l-.894-.432a.322.322 0 10-.28.58l.851.412v10.995l-9.344-4.51V5.657L8.45 9.093a.32.32 0 00.43-.15.322.322 0 00-.15-.43L1.753 5.144 4.954 3.6l9.681 4.673.004.006v3.867a.322.322 0 00.463.29l2.41-1.164a.322.322 0 00.183-.29V7.093l2.972-1.435v10.995z"/><path d="M3.993 15.403l-1.466-.707a.322.322 0 00-.28.58l1.466.708a.321.321 0 00.43-.15.322.322 0 00-.15-.43zM5.342 14.525l-2.813-1.358a.322.322 0 10-.28.58l2.813 1.359a.321.321 0 00.43-.15.322.322 0 00-.15-.43z"/></g><defs><clipPath id="jclip0"><path d="M0 0h22v22H0z"/></clipPath></defs></svg>