<?xml version="1.0" encoding="utf-8"?><svg width="22" height="22" xmlns="http://www.w3.org/2000/svg" viewBox="0 0 22 22"><path d="M10.5 11.5l4.5-2 5 2s.43 2.498 0 4c-.759 2.655-4 4.5-5 5-2.8-.8-4.167-4-4.5-5.5v-3.5z"/><path d="M17.49 16.552a.43.43 0 00-.598.109c-.131.189-.28.373-.442.546a5.25 5.25 0 01-.42.395.43.43 0 00.557.655c.19-.162.36-.322.492-.464.19-.203.364-.42.519-.643a.43.43 0 00-.108-.598zM15.619 18.479a.43.43 0 00-.572-.206l-.013.006a.43.43 0 10.378.771.43.43 0 00.207-.571z"/><path d="M20.716 1.117H1.284C.576 1.117 0 1.693 0 2.401v12.042c0 .708.576 1.284 1.284 1.284h9.048a7.182 7.182 0 002.01 3.508c1.106 1.075 2.374 1.648 2.865 1.648.49 0 1.758-.573 2.865-1.648a7.181 7.181 0 002.009-3.508h.635c.708 0 1.284-.576 1.284-1.284V2.401c0-.708-.576-1.284-1.284-1.284zm-1.294 12.849c0 2.264-1.045 3.765-1.922 4.626-1.04 1.022-2.107 1.42-2.293 1.431-.187-.012-1.254-.41-2.294-1.43-.877-.862-1.922-2.363-1.922-4.627V11.85a19.235 19.235 0 004.216-1.783 19.9 19.9 0 004.215 1.782v2.117zm1.719.477c0 .234-.19.424-.425.424h-.486c.033-.288.051-.588.051-.901v-2.442a.43.43 0 00-.317-.415 18.952 18.952 0 01-4.54-1.91.43.43 0 00-.435 0 18.433 18.433 0 01-4.54 1.91.43.43 0 00-.317.415v2.442c0 .313.018.613.05.901H1.285a.425.425 0 01-.425-.424v-7.31h20.282v7.31zm0-8.17H.859V4.555h20.282v1.718zm0-2.578H.859V2.401c0-.234.19-.424.425-.424h19.432c.234 0 .425.19.425.424v1.294z"/><path d="M5.156 10.14c-.259 0-.515.053-.752.153a1.936 1.936 0 00-2.686 1.781 1.936 1.936 0 002.686 1.782 1.935 1.935 0 002.686-1.782 1.936 1.936 0 00-1.934-1.933zM3.652 13.15a1.075 1.075 0 010-2.149 1.075 1.075 0 010 2.149zm1.61-.006a1.923 1.923 0 000-2.137c.543.053.968.512.968 1.068 0 .557-.425 1.016-.967 1.07zM4.359 8.207h-2.21a.43.43 0 100 .86h2.21a.43.43 0 000-.86zM5.63 8.207h-.02a.43.43 0 100 .86h.02a.43.43 0 000-.86zM17.566 12.978a.43.43 0 00-.608 0l-2.298 2.297-1.204-1.204a.43.43 0 00-.607.608l1.508 1.508a.428.428 0 00.607 0l2.602-2.602a.43.43 0 000-.607z"/></svg>