<?xml version="1.0" encoding="utf-8"?><svg width="22" height="22" xmlns="http://www.w3.org/2000/svg" viewBox="0 0 22 22"><path d="M9 6C9.4.8 13.166.167 15 .5 18.5 0 21 2 21.5 5c.4 2.4-1.167 4.666-2 5.5l-.5 3-1.5-1.5H16c-2.5.166-7.4-.8-7-6z"/><path d="M14.867 13.707a.43.43 0 00-.43.43v2.965a2.15 2.15 0 01-2.148 2.148H7.65a.43.43 0 00-.429.43v.854l-1.026-1.026a.43.43 0 00-.394-.258H3.008a2.15 2.15 0 01-2.149-2.148v-6.618a2.15 2.15 0 012.149-2.148h4.34a.43.43 0 000-.86h-4.34A3.011 3.011 0 000 10.485v6.618a3.011 3.011 0 003.008 3.007H5.58l1.765 1.765a.43.43 0 00.733-.303l.001-1.462h4.21a3.011 3.011 0 003.008-3.007v-2.965a.43.43 0 00-.43-.43z"/><path d="M15.755 0h-1.088a6.252 6.252 0 00-6.245 6.245 6.252 6.252 0 006.245 6.246h1.088c.537 0 1.07-.069 1.585-.204l1.606 1.606a.43.43 0 00.734-.304v-2.486A6.307 6.307 0 0021.32 9.08c.45-.883.679-1.836.679-2.834A6.252 6.252 0 0015.755 0zm3.236 10.55a.43.43 0 00-.17.344v1.658l-1.052-1.05a.43.43 0 00-.43-.107 5.39 5.39 0 01-1.584.236h-1.088a5.392 5.392 0 01-5.386-5.386A5.392 5.392 0 0114.667.86h1.088a5.392 5.392 0 015.386 5.386 5.346 5.346 0 01-2.15 4.305z"/><path d="M17.146 4.702a1.823 1.823 0 00-1.687-1.687 1.805 1.805 0 00-1.37.485 1.826 1.826 0 00-.577 1.33.43.43 0 00.86 0 .95.95 0 01.304-.702.96.96 0 11.866 1.638.813.813 0 00-.64.797v1.033a.43.43 0 00.859 0v-.998a1.81 1.81 0 001.385-1.896zM15.634 8.992a.433.433 0 00-.608 0 .433.433 0 000 .608.433.433 0 00.608 0 .433.433 0 000-.608zM11.816 13.32H2.75a.43.43 0 000 .86h9.066a.43.43 0 000-.86zM12.12 15.852a.433.433 0 00-.607 0 .433.433 0 000 .608.433.433 0 00.607 0 .432.432 0 000-.608zM10.126 15.727H2.75a.43.43 0 100 .859h7.376a.43.43 0 100-.86zM9.023 10.914H2.75a.43.43 0 100 .86h6.273a.43.43 0 100-.86z"/></svg>