<?xml version="1.0" encoding="utf-8"?><svg width="24" height="24" xmlns="http://www.w3.org/2000/svg" viewBox="0 0 24 24"><g clip-path="url(#kclip0)"><path d="M3.23 9.692h3.693v6.924H3.23V9.692z"/><path d="M18.915 9.026h-1.103l.229-.683a.352.352 0 00-.667-.223l-.303.906h-2.258l1.038-3.1c.601.387 1.31.597 2.062.58l-.157.47a.352.352 0 00.667.223l.268-.8c2.398-.612 3.208-3.407 1.56-5.228a.352.352 0 00-.594.125l-.82 2.45-1.211.246-.82-.925.872-2.604a.351.351 0 00-.359-.462c-2.823.204-4.062 3.445-2.053 5.454l-.647 1.936c-4.813.116-4.188 2-7.253 2.39a.943.943 0 00-.923-.755H3.827a.943.943 0 00-.942.942v6.215c0 .52.422.942.942.942h2.616c.48 0 .876-.36.934-.825 1.613.107 1.75.651 3.993.801l-.142.425c-1.23.173-2.261.987-2.645 2.134-.36 1.074-.088 2.289.709 3.169.18.199.508.13.594-.125l.82-2.45 1.21-.246.82.925-.872 2.604c-.079.236.107.48.36.462 2.648-.191 3.964-3.093 2.307-5.166l.577-1.725h1.843a1.275 1.275 0 001.096-1.923 1.275 1.275 0 00.654-1.845 1.275 1.275 0 00.655-1.845c.486-.18.833-.648.833-1.195 0-.703-.572-1.274-1.274-1.274zm-2.09-8.23l-.75 2.24c-.04.12-.012.25.07.345l1.089 1.23c.083.094.21.136.333.111l1.61-.327a.351.351 0 00.262-.233l.667-1.992c.331.605.403 1.3.186 1.947-.724 2.166-3.899 2.244-5.001.208-.774-1.43-.032-3.095 1.534-3.529zm-2.387 20.822c-.26.777-.909 1.36-1.72 1.586l.749-2.24a.352.352 0 00-.07-.345l-1.088-1.23a.352.352 0 00-.334-.111l-1.609.327a.351.351 0 00-.263.233l-.666 1.992c-1.112-2.03.893-4.258 3.21-3.483 1.424.477 2.236 1.94 1.79 3.271zm-2.46-4.117l.125-.375s.295-.018 2.264-.018l-.392 1.17a3.655 3.655 0 00-1.997-.777zm6.937-6.63h-4.224a.352.352 0 100 .703h3.57a.571.571 0 010 1.141h-3.57a.352.352 0 100 .704h2.915a.571.571 0 010 1.141H14.69a.352.352 0 100 .703h2.26a.571.571 0 010 1.142l-4.294.001c-.02.002-1.986.148-3.625-.501a6.624 6.624 0 00-1.647-.31v-3.577a.352.352 0 10-.703 0v4.165a.239.239 0 01-.24.239H3.828a.239.239 0 01-.239-.239V9.968c0-.132.107-.239.239-.239h2.616c.132 0 .239.107.239.239v.972a.352.352 0 10.703 0v-.451c3.312-.377 2.66-2.22 6.996-2.387l-.39 1.164a.352.352 0 00.334.463h4.59a.571.571 0 010 1.142z"/></g><defs><clipPath id="kclip0"><path d="M0 0h24v24H0z"/></clipPath></defs></svg>