<?xml version="1.0" encoding="utf-8"?><svg width="24" height="24" xmlns="http://www.w3.org/2000/svg" viewBox="0 0 24 24"><g clip-path="url(#mclip0)"><path d="M20 4l-4 4c.333.333 1.1 1.5 1.5 3.5.4 2-.833 3.833-1.5 4.5l4 4c1.167-.5 3.5-2.7 3.5-7.5S21.167 4.833 20 4z"/><path d="M19.849 6.314a.47.47 0 00-.138.651c.985 1.514 1.482 3.327 1.44 5.244a.47.47 0 00.46.48l.01.001a.47.47 0 00.47-.46c.047-2.107-.503-4.105-1.591-5.778a.47.47 0 00-.651-.138zM4 4l4 4c-.333.333-1.1 1.5-1.5 3.5-.4 2 .833 3.833 1.5 4.5l-4 4C2.833 19.5.5 17.3.5 12.5S2.833 4.833 4 4z"/><path d="M20.487 20.483A11.922 11.922 0 0024 12a11.921 11.921 0 00-3.515-8.486l-.002-.001A11.921 11.921 0 0012 0a11.921 11.921 0 00-8.483 3.513h-.001v.001h-.001A11.921 11.921 0 000 12c0 3.204 1.248 6.217 3.513 8.483v.001h.001v.001A11.921 11.921 0 0012 24a11.921 11.921 0 008.486-3.515l.001-.002zm-.345-1.008l-3.411-3.412A6.212 6.212 0 0018.239 12c0-1.552-.57-2.973-1.51-4.065l3.412-3.412A11.016 11.016 0 0123.058 12c0 2.88-1.107 5.505-2.917 7.475zM6.702 12A5.304 5.304 0 0112 6.702 5.304 5.304 0 0117.298 12 5.304 5.304 0 0112 17.298 5.304 5.304 0 016.702 12zm12.773-8.142l-3.412 3.411A6.212 6.212 0 0012 5.761c-1.55 0-2.97.569-4.063 1.508L4.525 3.858A11.016 11.016 0 0112 .94c2.88 0 5.505 1.107 7.475 2.917zm-15.616.665l3.412 3.412A6.212 6.212 0 005.761 12c0 1.55.569 2.97 1.508 4.063l-3.411 3.412A11.017 11.017 0 01.94 12c0-2.88 1.108-5.507 2.918-7.477zm.664 15.618l3.412-3.412A6.212 6.212 0 0012 18.239c1.552 0 2.973-.57 4.065-1.51l3.412 3.412A11.017 11.017 0 0112 23.059c-2.88 0-5.507-1.108-7.477-2.918z"/><path d="M21.916 13.655c-.114-.304-.545-.388-.767-.152-.295.29-.082.805.332.803.324.009.569-.355.435-.65z"/></g><defs><clipPath id="mclip0"><path d="M0 0h24v24H0z"/></clipPath></defs></svg>