<?xml version="1.0" encoding="utf-8"?><svg width="22" height="22" xmlns="http://www.w3.org/2000/svg" viewBox="0 0 22 22"><g clip-path="url(#iclip0)"><path d="M11 21.5V11h10.5v8.5c0 1.6-1.333 2-2 2H11z"/><path d="M21.542 10.542c.257 0 .459.201.459.458a.454.454 0 01-.459.458h-.458v-.916h.458zM11.459 10.542h9.625v.916h-9.625v-.916z"/><path d="M19.708 22H11a.454.454 0 00.458-.458v-.459h8.25c.761 0 1.375-.614 1.375-1.375v-8.25h.459A.454.454 0 0022 11v8.708A2.293 2.293 0 0119.708 22zM22 2.292V11a.454.454 0 00-.458-.458h-.459v-8.25c0-.761-.614-1.375-1.375-1.375h-8.25V.458A.454.454 0 0011 0h8.708A2.293 2.293 0 0122 2.292z"/><path d="M18.334 5.5c.257 0 .458.202.458.458a.454.454 0 01-.458.459h-3.667a.454.454 0 01-.458-.459c0-.256.202-.458.458-.458h3.667zM18.334 14.667c.257 0 .458.201.458.458a.454.454 0 01-.458.458h-3.667a.454.454 0 01-.458-.458c0-.257.202-.458.458-.458h3.667zM18.334 17.417c.257 0 .458.201.458.458a.454.454 0 01-.458.458h-3.667a.454.454 0 01-.458-.458c0-.257.202-.458.458-.458h3.667zM11.458 21.083v.459a.454.454 0 01-.459.458.454.454 0 01-.458-.458v-.459h.917zM10.541 11.458h.917v9.625h-.917v-9.625z"/><path d="M10.541 10.542h.917v.916h-.917v-.916zM10.541.917h.917v9.625h-.917V.917zM11.458.458v.459h-.917V.458c0-.256.202-.458.458-.458.257 0 .459.202.459.458zM.916 10.542h9.625v.916H.916v-.916zM7.334 5.5c.257 0 .458.202.458.458a.454.454 0 01-.458.459H5.959V5.5h1.375zM7.196 17.554a.443.443 0 010 .642.43.43 0 01-.321.137.43.43 0 01-.32-.137L5.5 17.142l.642-.642 1.054 1.054zM6.554 14.804a.443.443 0 01.642 0 .443.443 0 010 .642L6.142 16.5l-.642-.642 1.054-1.054zM4.855 16.5l.642-.642.642.641-.642.642-.642-.642zM5.958 6.417v1.375a.454.454 0 01-.459.458.454.454 0 01-.458-.458V6.417h.917zM5.041 5.5h.917v.917H5.04V5.5zM5.958 4.125V5.5H5.04V4.125c0-.257.202-.458.458-.458.257 0 .459.201.459.458z"/><path d="M5.5 15.858l-.642.642-1.054-1.054a.443.443 0 010-.642.443.443 0 01.641 0L5.5 15.858zM5.042 5.5v.917H3.667a.454.454 0 01-.458-.459c0-.256.202-.458.458-.458h1.375zM4.445 18.196a.43.43 0 01-.32.137.43.43 0 01-.321-.137.443.443 0 010-.642L4.858 16.5l.641.642-1.054 1.054zM.917 10.542v.916H.458A.454.454 0 010 11c0-.257.202-.458.458-.458h.459z"/><path d="M0 2.292A2.293 2.293 0 012.292 0H11a.454.454 0 00-.458.458v.459h-8.25C1.53.917.917 1.53.917 2.292v8.25H.458A.454.454 0 000 11V2.292zM.917 19.708c0 .761.614 1.375 1.375 1.375h8.25v.459c0 .256.201.458.458.458H2.292A2.293 2.293 0 010 19.708V11c0 .257.202.458.458.458h.459v8.25z"/></g><defs><clipPath id="iclip0"><path d="M0 0h22v22H0z"/></clipPath></defs></svg>