<?xml version="1.0" encoding="utf-8"?><svg viewBox="0 0 34 29" xmlns="http://www.w3.org/2000/svg" xmlns:xlink="http://www.w3.org/1999/xlink"><style>:root>svg{display:none}:root>svg:target{display:block}</style><svg viewBox="0 0 29 29" id="example" xmlns="http://www.w3.org/2000/svg"><path d="M28.24 22.372l-5.87-3.915a1.713 1.713 0 00-2.294.373l-1.71 2.199a.73.73 0 01-.937.197l-.325-.18c-1.079-.587-2.42-1.319-5.123-4.023-2.703-2.704-3.436-4.046-4.024-5.122l-.178-.326a.732.732 0 01.193-.94l2.197-1.71c.703-.55.865-1.548.373-2.293L6.628.762A1.704 1.704 0 004.33.245L1.876 1.719A3.462 3.462 0 00.297 3.77c-.884 3.22-.219 8.778 7.969 16.966C14.779 27.247 19.627 29 22.96 29a8.56 8.56 0 002.271-.297 3.46 3.46 0 002.05-1.579l1.475-2.453a1.704 1.704 0 00-.517-2.298zm-.317 1.802l-1.472 2.455a2.497 2.497 0 01-1.474 1.142c-2.973.817-8.167.14-16.028-7.72C1.09 12.191.413 6.997 1.23 4.024a2.501 2.501 0 011.144-1.476l2.455-1.472a.74.74 0 01.997.224L7.95 4.492 9.736 7.17a.744.744 0 01-.162.996L7.377 9.874a1.691 1.691 0 00-.448 2.17l.175.318c.617 1.132 1.385 2.542 4.189 5.344 2.803 2.803 4.212 3.571 5.344 4.189l.317.175c.735.412 1.66.22 2.171-.448l1.71-2.198a.744.744 0 01.995-.16l5.87 3.914c.329.218.428.658.223.996zM16.433 4.836a8.225 8.225 0 018.215 8.215.483.483 0 10.967 0 9.192 9.192 0 00-9.182-9.182.483.483 0 100 .967z"/><path d="M16.433 7.735a5.322 5.322 0 015.316 5.316.483.483 0 00.966 0 6.29 6.29 0 00-6.282-6.282.483.483 0 100 .966z"/><path d="M16.433 10.635a2.42 2.42 0 012.416 2.416.483.483 0 10.967 0 3.387 3.387 0 00-3.383-3.383.483.483 0 100 .967z"/></svg><svg viewBox="0 0 8 5" id="icon-arrow-down" xmlns="http://www.w3.org/2000/svg"><path d="M3.646 4.354a.5.5 0 00.708 0l3.182-3.182a.5.5 0 10-.708-.708L4 3.293 1.172.464a.5.5 0 10-.708.708l3.182 3.182zM3.5 3v1h1V3h-1z"/></svg><svg viewBox="0 0 19 8" id="icon-arrow-left" xmlns="http://www.w3.org/2000/svg"><path d="M.828 3.51a.5.5 0 000 .707L4.01 7.4a.5.5 0 10.707-.707L1.89 3.864l2.828-2.829A.5.5 0 004.01.328L.828 3.51zm17.809-.146H1.182v1h17.455v-1z"/></svg><svg viewBox="0 0 19 8" id="icon-arrow-right" xmlns="http://www.w3.org/2000/svg"><path d="M18.445 4.217a.5.5 0 000-.707L15.263.328a.5.5 0 10-.707.707l2.828 2.829-2.829 2.828a.5.5 0 10.708.707l3.182-3.182zM.636 4.364h17.455v-1H.636v1z"/></svg><svg viewBox="0 0 34 22" id="icon-burger" xmlns="http://www.w3.org/2000/svg"><path d="M1 1h32M1 11h18M25 11h8M1 21h32"/></svg><svg viewBox="0 0 24 25" id="icon-buyout1" xmlns="http://www.w3.org/2000/svg"><g clip-path="url(#fclip0)"><path d="M1.63 20.526l12.08.448v2.237H1.63v-2.685z"/><path d="M12.853 24.105H2.19a1.456 1.456 0 01-1.454-1.454v-.969c0-.802.653-1.454 1.454-1.454h10.663c.801 0 1.454.652 1.454 1.454v.97c0 .8-.653 1.453-1.454 1.453zM2.19 21.197a.485.485 0 00-.484.485v.97c0 .266.217.484.484.484h10.663a.485.485 0 00.484-.485v-.969a.485.485 0 00-.484-.485H2.19zM11.1 13.082a.842.842 0 01-.62-.244L7.078 9.435c-.595-.595.059-1.624.273-1.961.402-.632 1.029-1.386 1.765-2.123.738-.739 1.493-1.367 2.125-1.77.34-.215 1.37-.87 1.965-.274l3.402 3.402c.596.596-.06 1.627-.275 1.966-.403.633-1.032 1.388-1.77 2.125-.737.737-1.491 1.363-2.122 1.764-.236.152-.812.518-1.34.518zm1.421-9.09c-.17.007-1.232.558-2.716 2.04-1.483 1.483-2.035 2.548-2 2.788l3.361 3.332c.171-.006 1.234-.558 2.718-2.04 1.427-1.429 1.991-2.467 2-2.758l-3.363-3.362z"/><path d="M9.463 15.303c-.37 0-.742-.142-1.024-.424l-3.402-3.402a1.434 1.434 0 01-.424-1.023c0-.386.15-.75.425-1.023l.68-.68a1.449 1.449 0 012.046 0l3.403 3.402a1.449 1.449 0 010 2.046l-.68.68a1.446 1.446 0 01-1.024.424zM6.74 9.296a.48.48 0 00-.338.14l-.68.68a.473.473 0 000 .677l3.402 3.402a.48.48 0 00.676 0l.68-.68a.479.479 0 000-.676L7.08 9.437a.48.48 0 00-.338-.141zM16.948 7.817c-.37 0-.741-.142-1.023-.424l-3.402-3.402a1.447 1.447 0 010-2.045l.68-.68a1.448 1.448 0 012.046 0l3.403 3.402a1.449 1.449 0 010 2.046l-.68.68a1.441 1.441 0 01-1.024.423zm-2.721-6.005a.48.48 0 00-.339.14l-.68.68a.477.477 0 000 .675l3.402 3.402a.48.48 0 00.676 0l.68-.68a.479.479 0 000-.675l-3.402-3.402a.476.476 0 00-.337-.14zm4.081 4.56h.01-.01zM22.155 20.23c-.585 0-1.214-.334-1.883-1.002-.668-.67-4.6-4.997-7.041-7.875a.484.484 0 11.74-.626c2.544 3 6.41 7.238 6.987 7.815 1.091 1.094 1.517.668 1.77.416.117-.116.277-.275.3-.503.032-.33-.215-.769-.714-1.269-.573-.573-4.803-4.432-7.816-6.99a.484.484 0 11.627-.739c2.89 2.452 7.213 6.38 7.876 7.044.722.722 1.057 1.412.993 2.05-.058.571-.41.923-.578 1.091-.394.393-.814.589-1.261.589z"/></g><defs><clipPath id="fclip0"><path transform="translate(.736 .842)" d="M0 0h23.263v23.263H0z"/></clipPath></defs></svg><svg viewBox="0 0 22 22" id="icon-buyout2" xmlns="http://www.w3.org/2000/svg"><path d="M9 6C9.4.8 13.166.167 15 .5 18.5 0 21 2 21.5 5c.4 2.4-1.167 4.666-2 5.5l-.5 3-1.5-1.5H16c-2.5.166-7.4-.8-7-6z"/><path d="M14.867 13.707a.43.43 0 00-.43.43v2.965a2.15 2.15 0 01-2.148 2.148H7.65a.43.43 0 00-.429.43v.854l-1.026-1.026a.43.43 0 00-.394-.258H3.008a2.15 2.15 0 01-2.149-2.148v-6.618a2.15 2.15 0 012.149-2.148h4.34a.43.43 0 000-.86h-4.34A3.011 3.011 0 000 10.485v6.618a3.011 3.011 0 003.008 3.007H5.58l1.765 1.765a.43.43 0 00.733-.303l.001-1.462h4.21a3.011 3.011 0 003.008-3.007v-2.965a.43.43 0 00-.43-.43z"/><path d="M15.755 0h-1.088a6.252 6.252 0 00-6.245 6.245 6.252 6.252 0 006.245 6.246h1.088c.537 0 1.07-.069 1.585-.204l1.606 1.606a.43.43 0 00.734-.304v-2.486A6.307 6.307 0 0021.32 9.08c.45-.883.679-1.836.679-2.834A6.252 6.252 0 0015.755 0zm3.236 10.55a.43.43 0 00-.17.344v1.658l-1.052-1.05a.43.43 0 00-.43-.107 5.39 5.39 0 01-1.584.236h-1.088a5.392 5.392 0 01-5.386-5.386A5.392 5.392 0 0114.667.86h1.088a5.392 5.392 0 015.386 5.386 5.346 5.346 0 01-2.15 4.305z"/><path d="M17.146 4.702a1.823 1.823 0 00-1.687-1.687 1.805 1.805 0 00-1.37.485 1.826 1.826 0 00-.577 1.33.43.43 0 00.86 0 .95.95 0 01.304-.702.96.96 0 11.866 1.638.813.813 0 00-.64.797v1.033a.43.43 0 00.859 0v-.998a1.81 1.81 0 001.385-1.896zM15.634 8.992a.433.433 0 00-.608 0 .433.433 0 000 .608.433.433 0 00.608 0 .433.433 0 000-.608zM11.816 13.32H2.75a.43.43 0 000 .86h9.066a.43.43 0 000-.86zM12.12 15.852a.433.433 0 00-.607 0 .433.433 0 000 .608.433.433 0 00.607 0 .432.432 0 000-.608zM10.126 15.727H2.75a.43.43 0 100 .859h7.376a.43.43 0 100-.86zM9.023 10.914H2.75a.43.43 0 100 .86h6.273a.43.43 0 100-.86z"/></svg><svg viewBox="0 0 22 22" id="icon-buyout3" xmlns="http://www.w3.org/2000/svg"><path d="M10.5 11.5l4.5-2 5 2s.43 2.498 0 4c-.759 2.655-4 4.5-5 5-2.8-.8-4.167-4-4.5-5.5v-3.5z"/><path d="M17.49 16.552a.43.43 0 00-.598.109c-.131.189-.28.373-.442.546a5.25 5.25 0 01-.42.395.43.43 0 00.557.655c.19-.162.36-.322.492-.464.19-.203.364-.42.519-.643a.43.43 0 00-.108-.598zM15.619 18.479a.43.43 0 00-.572-.206l-.013.006a.43.43 0 10.378.771.43.43 0 00.207-.571z"/><path d="M20.716 1.117H1.284C.576 1.117 0 1.693 0 2.401v12.042c0 .708.576 1.284 1.284 1.284h9.048a7.182 7.182 0 002.01 3.508c1.106 1.075 2.374 1.648 2.865 1.648.49 0 1.758-.573 2.865-1.648a7.181 7.181 0 002.009-3.508h.635c.708 0 1.284-.576 1.284-1.284V2.401c0-.708-.576-1.284-1.284-1.284zm-1.294 12.849c0 2.264-1.045 3.765-1.922 4.626-1.04 1.022-2.107 1.42-2.293 1.431-.187-.012-1.254-.41-2.294-1.43-.877-.862-1.922-2.363-1.922-4.627V11.85a19.235 19.235 0 004.216-1.783 19.9 19.9 0 004.215 1.782v2.117zm1.719.477c0 .234-.19.424-.425.424h-.486c.033-.288.051-.588.051-.901v-2.442a.43.43 0 00-.317-.415 18.952 18.952 0 01-4.54-1.91.43.43 0 00-.435 0 18.433 18.433 0 01-4.54 1.91.43.43 0 00-.317.415v2.442c0 .313.018.613.05.901H1.285a.425.425 0 01-.425-.424v-7.31h20.282v7.31zm0-8.17H.859V4.555h20.282v1.718zm0-2.578H.859V2.401c0-.234.19-.424.425-.424h19.432c.234 0 .425.19.425.424v1.294z"/><path d="M5.156 10.14c-.259 0-.515.053-.752.153a1.936 1.936 0 00-2.686 1.781 1.936 1.936 0 002.686 1.782 1.935 1.935 0 002.686-1.782 1.936 1.936 0 00-1.934-1.933zM3.652 13.15a1.075 1.075 0 010-2.149 1.075 1.075 0 010 2.149zm1.61-.006a1.923 1.923 0 000-2.137c.543.053.968.512.968 1.068 0 .557-.425 1.016-.967 1.07zM4.359 8.207h-2.21a.43.43 0 100 .86h2.21a.43.43 0 000-.86zM5.63 8.207h-.02a.43.43 0 100 .86h.02a.43.43 0 000-.86zM17.566 12.978a.43.43 0 00-.608 0l-2.298 2.297-1.204-1.204a.43.43 0 00-.607.608l1.508 1.508a.428.428 0 00.607 0l2.602-2.602a.43.43 0 000-.607z"/></svg><svg viewBox="0 0 22 22" id="icon-buyout4" xmlns="http://www.w3.org/2000/svg"><g clip-path="url(#iclip0)"><path d="M11 21.5V11h10.5v8.5c0 1.6-1.333 2-2 2H11z"/><path d="M21.542 10.542c.257 0 .459.201.459.458a.454.454 0 01-.459.458h-.458v-.916h.458zM11.459 10.542h9.625v.916h-9.625v-.916z"/><path d="M19.708 22H11a.454.454 0 00.458-.458v-.459h8.25c.761 0 1.375-.614 1.375-1.375v-8.25h.459A.454.454 0 0022 11v8.708A2.293 2.293 0 0119.708 22zM22 2.292V11a.454.454 0 00-.458-.458h-.459v-8.25c0-.761-.614-1.375-1.375-1.375h-8.25V.458A.454.454 0 0011 0h8.708A2.293 2.293 0 0122 2.292z"/><path d="M18.334 5.5c.257 0 .458.202.458.458a.454.454 0 01-.458.459h-3.667a.454.454 0 01-.458-.459c0-.256.202-.458.458-.458h3.667zM18.334 14.667c.257 0 .458.201.458.458a.454.454 0 01-.458.458h-3.667a.454.454 0 01-.458-.458c0-.257.202-.458.458-.458h3.667zM18.334 17.417c.257 0 .458.201.458.458a.454.454 0 01-.458.458h-3.667a.454.454 0 01-.458-.458c0-.257.202-.458.458-.458h3.667zM11.458 21.083v.459a.454.454 0 01-.459.458.454.454 0 01-.458-.458v-.459h.917zM10.541 11.458h.917v9.625h-.917v-9.625z"/><path d="M10.541 10.542h.917v.916h-.917v-.916zM10.541.917h.917v9.625h-.917V.917zM11.458.458v.459h-.917V.458c0-.256.202-.458.458-.458.257 0 .459.202.459.458zM.916 10.542h9.625v.916H.916v-.916zM7.334 5.5c.257 0 .458.202.458.458a.454.454 0 01-.458.459H5.959V5.5h1.375zM7.196 17.554a.443.443 0 010 .642.43.43 0 01-.321.137.43.43 0 01-.32-.137L5.5 17.142l.642-.642 1.054 1.054zM6.554 14.804a.443.443 0 01.642 0 .443.443 0 010 .642L6.142 16.5l-.642-.642 1.054-1.054zM4.855 16.5l.642-.642.642.641-.642.642-.642-.642zM5.958 6.417v1.375a.454.454 0 01-.459.458.454.454 0 01-.458-.458V6.417h.917zM5.041 5.5h.917v.917H5.04V5.5zM5.958 4.125V5.5H5.04V4.125c0-.257.202-.458.458-.458.257 0 .459.201.459.458z"/><path d="M5.5 15.858l-.642.642-1.054-1.054a.443.443 0 010-.642.443.443 0 01.641 0L5.5 15.858zM5.042 5.5v.917H3.667a.454.454 0 01-.458-.459c0-.256.202-.458.458-.458h1.375zM4.445 18.196a.43.43 0 01-.32.137.43.43 0 01-.321-.137.443.443 0 010-.642L4.858 16.5l.641.642-1.054 1.054zM.917 10.542v.916H.458A.454.454 0 010 11c0-.257.202-.458.458-.458h.459z"/><path d="M0 2.292A2.293 2.293 0 012.292 0H11a.454.454 0 00-.458.458v.459h-8.25C1.53.917.917 1.53.917 2.292v8.25H.458A.454.454 0 000 11V2.292zM.917 19.708c0 .761.614 1.375 1.375 1.375h8.25v.459c0 .256.201.458.458.458H2.292A2.293 2.293 0 010 19.708V11c0 .257.202.458.458.458h.459v8.25z"/></g><defs><clipPath id="iclip0"><path d="M0 0h22v22H0z"/></clipPath></defs></svg><svg viewBox="0 0 22 22" id="icon-buyout5" xmlns="http://www.w3.org/2000/svg"><g clip-path="url(#jclip0)"><path d="M17.5 11L15 12V8L5.5 3.5 5 3l2.5-1L17 6.5l.5.5v4z"/><path d="M21.13 4.854L11.14.032a.322.322 0 00-.28 0L.873 4.854a.322.322 0 00-.183.29v11.712c0 .123.071.236.183.29l9.989 4.822a.323.323 0 00.28 0l9.989-4.822a.322.322 0 00.182-.29V5.143a.322.322 0 00-.182-.29zM11 .68l9.248 4.464-2.68 1.295a.32.32 0 00-.055-.035L8.328 1.97 11.001.68zM7.6 2.335l9.234 4.457-1.89.914-9.231-4.457L7.6 2.335zm9.45 5.069v3.375l-1.766.853V8.257l1.766-.853zm3.617 9.25l-9.344 4.51V10.17l2.229-1.076a.322.322 0 00-.28-.58L11 9.608l-.894-.432a.322.322 0 10-.28.58l.851.412v10.995l-9.344-4.51V5.657L8.45 9.093a.32.32 0 00.43-.15.322.322 0 00-.15-.43L1.753 5.144 4.954 3.6l9.681 4.673.004.006v3.867a.322.322 0 00.463.29l2.41-1.164a.322.322 0 00.183-.29V7.093l2.972-1.435v10.995z"/><path d="M3.993 15.403l-1.466-.707a.322.322 0 00-.28.58l1.466.708a.321.321 0 00.43-.15.322.322 0 00-.15-.43zM5.342 14.525l-2.813-1.358a.322.322 0 10-.28.58l2.813 1.359a.321.321 0 00.43-.15.322.322 0 00-.15-.43z"/></g><defs><clipPath id="jclip0"><path d="M0 0h22v22H0z"/></clipPath></defs></svg><svg viewBox="0 0 24 24" id="icon-buyout6" xmlns="http://www.w3.org/2000/svg"><g clip-path="url(#kclip0)"><path d="M3.23 9.692h3.693v6.924H3.23V9.692z"/><path d="M18.915 9.026h-1.103l.229-.683a.352.352 0 00-.667-.223l-.303.906h-2.258l1.038-3.1c.601.387 1.31.597 2.062.58l-.157.47a.352.352 0 00.667.223l.268-.8c2.398-.612 3.208-3.407 1.56-5.228a.352.352 0 00-.594.125l-.82 2.45-1.211.246-.82-.925.872-2.604a.351.351 0 00-.359-.462c-2.823.204-4.062 3.445-2.053 5.454l-.647 1.936c-4.813.116-4.188 2-7.253 2.39a.943.943 0 00-.923-.755H3.827a.943.943 0 00-.942.942v6.215c0 .52.422.942.942.942h2.616c.48 0 .876-.36.934-.825 1.613.107 1.75.651 3.993.801l-.142.425c-1.23.173-2.261.987-2.645 2.134-.36 1.074-.088 2.289.709 3.169.18.199.508.13.594-.125l.82-2.45 1.21-.246.82.925-.872 2.604c-.079.236.107.48.36.462 2.648-.191 3.964-3.093 2.307-5.166l.577-1.725h1.843a1.275 1.275 0 001.096-1.923 1.275 1.275 0 00.654-1.845 1.275 1.275 0 00.655-1.845c.486-.18.833-.648.833-1.195 0-.703-.572-1.274-1.274-1.274zm-2.09-8.23l-.75 2.24c-.04.12-.012.25.07.345l1.089 1.23c.083.094.21.136.333.111l1.61-.327a.351.351 0 00.262-.233l.667-1.992c.331.605.403 1.3.186 1.947-.724 2.166-3.899 2.244-5.001.208-.774-1.43-.032-3.095 1.534-3.529zm-2.387 20.822c-.26.777-.909 1.36-1.72 1.586l.749-2.24a.352.352 0 00-.07-.345l-1.088-1.23a.352.352 0 00-.334-.111l-1.609.327a.351.351 0 00-.263.233l-.666 1.992c-1.112-2.03.893-4.258 3.21-3.483 1.424.477 2.236 1.94 1.79 3.271zm-2.46-4.117l.125-.375s.295-.018 2.264-.018l-.392 1.17a3.655 3.655 0 00-1.997-.777zm6.937-6.63h-4.224a.352.352 0 100 .703h3.57a.571.571 0 010 1.141h-3.57a.352.352 0 100 .704h2.915a.571.571 0 010 1.141H14.69a.352.352 0 100 .703h2.26a.571.571 0 010 1.142l-4.294.001c-.02.002-1.986.148-3.625-.501a6.624 6.624 0 00-1.647-.31v-3.577a.352.352 0 10-.703 0v4.165a.239.239 0 01-.24.239H3.828a.239.239 0 01-.239-.239V9.968c0-.132.107-.239.239-.239h2.616c.132 0 .239.107.239.239v.972a.352.352 0 10.703 0v-.451c3.312-.377 2.66-2.22 6.996-2.387l-.39 1.164a.352.352 0 00.334.463h4.59a.571.571 0 010 1.142z"/></g><defs><clipPath id="kclip0"><path d="M0 0h24v24H0z"/></clipPath></defs></svg><svg viewBox="0 0 23 24" id="icon-buyout7" xmlns="http://www.w3.org/2000/svg"><g clip-path="url(#lclip0)"><path d="M18 5c0 2.761-1.739 5-4.5 5S9 7.761 9 5 10.739.5 13.5.5 18 2.239 18 5zM10.614 16.278a.483.483 0 000-.663.438.438 0 00-.637 0 .484.484 0 000 .663c.176.183.461.183.637 0z"/><path d="M8.482 5.155c0 2.842 2.22 5.155 4.95 5.155s4.95-2.313 4.95-5.155c0-2.843-2.22-5.155-4.95-5.155s-4.95 2.312-4.95 5.155zm9 0c0 2.325-1.817 4.217-4.05 4.217-2.233 0-4.05-1.892-4.05-4.217 0-2.326 1.817-4.218 4.05-4.218 2.233 0 4.05 1.892 4.05 4.218zM5.206 23.861a.437.437 0 00.635.004l2.182-2.238c.37-.386.483-.958.32-1.454l.47-.472c.252-.254.585-.394.937-.394h5.982a3.947 3.947 0 002.824-1.195c.031-.032-.237.298 4.081-5.077.64-.79.545-1.974-.214-2.642a1.755 1.755 0 00-2.525.209l-2.655 2.842a1.782 1.782 0 00-1.399-.698h-5.018a5.607 5.607 0 00-2.253-.468c-2.167 0-4.059 1.042-5.074 2.996a1.31 1.31 0 00-1.204.389l-2.14 2.235a.483.483 0 00-.001.662l5.052 5.301zm3.367-10.646c.689 0 1.355.145 1.98.43.058.025.12.039.181.039h5.11c.488 0 .9.414.9.937 0 .517-.404.937-.9.937h-3.671a.46.46 0 00-.45.469.46.46 0 00.45.468h3.671c.993 0 1.8-.84 1.8-1.874 0-.082-.006-.164-.016-.245 2.569-2.75 2.93-3.136 2.946-3.155a.878.878 0 011.269-.112c.379.334.427.926.105 1.323l-4.035 5.024c-.59.59-1.364.914-2.181.914H9.75a2.19 2.19 0 00-1.562.657l-.383.384-3.525-3.67c.824-1.61 2.37-2.526 4.293-2.526zm-5.64 3.11a.435.435 0 01.556-.066c.078.05-.145-.163 3.898 4.042.18.188.17.486.002.66L5.53 22.87l-4.421-4.64 1.824-1.905z"/><path d="M12.892 2.343v.55c-.524.193-.9.714-.9 1.325 0 .775.605 1.406 1.35 1.406.248 0 .45.21.45.468a.46.46 0 01-.45.469c-.193 0-.4-.126-.585-.355a.438.438 0 00-.634-.057.482.482 0 00-.054.66c.24.298.523.506.823.61v.548a.46.46 0 00.45.468.46.46 0 00.45-.468v-.55c.523-.193.9-.714.9-1.325 0-.775-.606-1.406-1.35-1.406a.46.46 0 01-.45-.468.46.46 0 01.45-.469c.16 0 .327.085.486.245.179.18.464.175.637-.01a.483.483 0 00-.01-.663 1.729 1.729 0 00-.664-.432v-.546a.46.46 0 00-.45-.468.46.46 0 00-.45.468z"/></g><defs><clipPath id="lclip0"><path d="M0 0h23v24H0z"/></clipPath></defs></svg><svg viewBox="0 0 24 24" id="icon-buyout8" xmlns="http://www.w3.org/2000/svg"><g clip-path="url(#mclip0)"><path d="M20 4l-4 4c.333.333 1.1 1.5 1.5 3.5.4 2-.833 3.833-1.5 4.5l4 4c1.167-.5 3.5-2.7 3.5-7.5S21.167 4.833 20 4z"/><path d="M19.849 6.314a.47.47 0 00-.138.651c.985 1.514 1.482 3.327 1.44 5.244a.47.47 0 00.46.48l.01.001a.47.47 0 00.47-.46c.047-2.107-.503-4.105-1.591-5.778a.47.47 0 00-.651-.138zM4 4l4 4c-.333.333-1.1 1.5-1.5 3.5-.4 2 .833 3.833 1.5 4.5l-4 4C2.833 19.5.5 17.3.5 12.5S2.833 4.833 4 4z"/><path d="M20.487 20.483A11.922 11.922 0 0024 12a11.921 11.921 0 00-3.515-8.486l-.002-.001A11.921 11.921 0 0012 0a11.921 11.921 0 00-8.483 3.513h-.001v.001h-.001A11.921 11.921 0 000 12c0 3.204 1.248 6.217 3.513 8.483v.001h.001v.001A11.921 11.921 0 0012 24a11.921 11.921 0 008.486-3.515l.001-.002zm-.345-1.008l-3.411-3.412A6.212 6.212 0 0018.239 12c0-1.552-.57-2.973-1.51-4.065l3.412-3.412A11.016 11.016 0 0123.058 12c0 2.88-1.107 5.505-2.917 7.475zM6.702 12A5.304 5.304 0 0112 6.702 5.304 5.304 0 0117.298 12 5.304 5.304 0 0112 17.298 5.304 5.304 0 016.702 12zm12.773-8.142l-3.412 3.411A6.212 6.212 0 0012 5.761c-1.55 0-2.97.569-4.063 1.508L4.525 3.858A11.016 11.016 0 0112 .94c2.88 0 5.505 1.107 7.475 2.917zm-15.616.665l3.412 3.412A6.212 6.212 0 005.761 12c0 1.55.569 2.97 1.508 4.063l-3.411 3.412A11.017 11.017 0 01.94 12c0-2.88 1.108-5.507 2.918-7.477zm.664 15.618l3.412-3.412A6.212 6.212 0 0012 18.239c1.552 0 2.973-.57 4.065-1.51l3.412 3.412A11.017 11.017 0 0112 23.059c-2.88 0-5.507-1.108-7.477-2.918z"/><path d="M21.916 13.655c-.114-.304-.545-.388-.767-.152-.295.29-.082.805.332.803.324.009.569-.355.435-.65z"/></g><defs><clipPath id="mclip0"><path d="M0 0h24v24H0z"/></clipPath></defs></svg><svg viewBox="0 0 20 20" id="icon-close" xmlns="http://www.w3.org/2000/svg"><path d="M11.105 10l8.666-8.666A.781.781 0 0018.666.23L10 8.896 1.334.23A.781.781 0 10.229 1.334l8.666 8.667L.23 18.667a.781.781 0 101.105 1.105L10 11.106l8.666 8.666a.778.778 0 001.105 0 .781.781 0 000-1.105l-8.666-8.666z"/></svg><svg viewBox="0 0 26 18" id="icon-menu" xmlns="http://www.w3.org/2000/svg"><path d="M1 1h24M1 8.647h13.294M19.353 8.647H25M1 16.294h24"/></svg><svg viewBox="0 0 17 18" id="icon-phone" xmlns="http://www.w3.org/2000/svg"><path d="M15.636 11.417a9.65 9.65 0 01-3.031-.482c-.475-.162-1.058-.014-1.348.284l-1.911 1.443c-2.217-1.184-3.583-2.549-4.75-4.749l1.4-1.862c.365-.363.495-.894.339-1.392a9.667 9.667 0 01-.485-3.036C5.85.87 5.238.259 4.486.259H1.364C.612.259 0 .87 0 1.623c0 8.622 7.014 15.636 15.636 15.636.752 0 1.364-.612 1.364-1.364V12.78c0-.752-.612-1.364-1.364-1.364z"/></svg><svg viewBox="0 0 14 14" id="icon-telegram" xmlns="http://www.w3.org/2000/svg"><path d="M.388 6.886L3.53 8.123l1.224 4.163c.053.281.373.338.586.169l1.757-1.52c.16-.168.426-.168.639 0l3.141 2.42a.364.364 0 00.586-.225l2.343-11.814c.053-.281-.213-.562-.48-.45L.388 6.154c-.32.113-.32.619 0 .732zm4.206.618l6.177-3.994c.106-.056.213.113.106.169L5.82 8.686c-.16.168-.32.393-.32.675l-.16 1.35c0 .169-.265.225-.319 0l-.638-2.475c-.16-.282-.054-.62.212-.732z"/></svg><svg viewBox="0 0 15 17" id="icon-viber" xmlns="http://www.w3.org/2000/svg"><path d="M11.264.702a20.055 20.055 0 00-7.912 0C2.2.965.748 2.436.497 3.592c-.45 2.26-.45 4.571 0 6.83.3 1.156 1.753 2.628 2.855 2.89.05 0 .1.053.1.105v3.31c0 .158.2.263.3.106l1.502-1.63s1.202-1.313 1.403-1.523c0 0 .05-.053.1-.053 1.502.053 3.054-.104 4.557-.367 1.152-.263 2.604-1.734 2.854-2.89.45-2.26.45-4.571 0-6.83-.3-1.104-1.753-2.575-2.904-2.838zm.05 9.878c-.25.526-.551.946-1.052 1.209l-.45.157c-.2-.052-.351-.105-.501-.157-1.603-.683-3.105-1.63-4.307-2.995a12.714 12.714 0 01-1.652-2.627c-.2-.473-.401-.894-.551-1.366-.15-.42.1-.841.35-1.156.25-.316.551-.526.902-.683.25-.158.5-.053.7.157.401.526.802 1.051 1.102 1.63.2.367.15.787-.2 1.05-.1.052-.15.105-.25.21-.05.053-.15.105-.2.21-.1.158-.1.315-.05.473.4 1.209 1.151 2.154 2.303 2.68.2.105.35.157.6.157.351-.052.502-.473.752-.683.25-.21.55-.21.851-.052.25.157.501.368.801.578.25.21.501.367.752.578.15.105.2.367.1.63zM9.21 6.64c-.1 0-.05 0 0 0-.2 0-.25-.106-.301-.263 0-.105 0-.263-.05-.368-.05-.21-.15-.42-.35-.578l-.301-.158c-.15-.052-.25-.052-.4-.052-.15-.053-.2-.158-.2-.315 0-.105.15-.21.25-.21.8.052 1.402.525 1.502 1.523v.21c0 .105-.05.21-.15.21zM8.71 4.328c-.25-.105-.501-.21-.801-.263-.1 0-.25-.053-.351-.053-.15 0-.25-.105-.2-.262 0-.158.1-.263.25-.21.5.052.952.157 1.402.367.902.473 1.402 1.261 1.553 2.312v.683c-.05.21-.401.263-.451 0 0-.052-.05-.157-.05-.21 0-.473-.1-.946-.3-1.366-.301-.473-.652-.788-1.052-.998zm2.704 3.152c-.15 0-.25-.157-.25-.315 0-.315-.05-.63-.1-.946-.201-1.681-1.503-3.047-3.055-3.31-.25-.052-.501-.052-.701-.105-.15 0-.35 0-.401-.21-.05-.158.1-.315.25-.315h.1c2.054.052.1 0 0 0 2.104.052 3.856 1.523 4.207 3.73.05.368.1.736.1 1.156.1.158 0 .315-.15.315z"/></svg><svg viewBox="0 0 16 16" id="icon-whatsapp" xmlns="http://www.w3.org/2000/svg"><path d="M13.08 2.707C11.73 1.287 9.93.497 8.03.497 4.081.497.882 3.865.882 8.023c0 1.316.35 2.632.95 3.737l-1 3.895 3.8-1.052a7 7 0 003.398.894c3.95 0 7.149-3.368 7.149-7.526-.05-1.948-.75-3.842-2.1-5.264zm-1.6 8c-.15.422-.85.843-1.2.895-.3.053-.7.053-1.1-.052-.25-.105-.6-.21-1-.421-1.8-.79-2.949-2.684-3.049-2.842-.1-.106-.75-1-.75-1.948 0-.947.45-1.368.6-1.579.15-.21.35-.21.5-.21h.35c.1 0 .25-.053.4.315.15.369.5 1.316.55 1.369.05.105.05.21 0 .316-.05.105-.1.21-.2.316-.1.105-.2.263-.25.315-.1.106-.2.21-.1.369.1.21.45.79 1 1.316.7.631 1.25.842 1.45.947.2.105.3.053.4-.053.1-.105.45-.526.55-.737.1-.21.25-.157.399-.105.15.053 1.05.527 1.2.632.2.105.3.158.35.21.05.158.05.527-.1.948z"/></svg></svg>